<?xml version="1.0" encoding="utf-8"?>
<!-- Generator: Adobe Illustrator 19.0.0, SVG Export Plug-In . SVG Version: 6.00 Build 0)  -->
<svg version="1.1" id="Layer_1" xmlns="http://www.w3.org/2000/svg" xmlns:xlink="http://www.w3.org/1999/xlink" x="0px" y="0px"
	 viewBox="-458 391.9 274 59" style="enable-background:new -458 391.9 274 59;" xml:space="preserve">
<style type="text/css">
	.st0{fill:#FFFFFF;}
	.st1{fill:none;stroke:#FFFFFF;stroke-width:0.4928;stroke-miterlimit:10;}
	.st2{stroke:#FFFFFF;stroke-width:0.75;stroke-miterlimit:10;}
	.st3{fill:#CF0A2C;stroke:#FFFFFF;stroke-width:0.75;stroke-miterlimit:10;}
	.st4{fill:#A8A8A8;}
</style>
<path class="st0" d="M-222.2,415v-2.8c0.4,0,0.6-0.1,1-0.1v-0.5c-0.8-0.1-2.6-0.1-2.7,0v0.5c0.3,0,0.6,0.1,1,0.1v2.8H-222.2z
	 M-218.5,411.6c-0.2,0.8-0.4,1.6-0.6,2.4c0,0,0,0-0.1,0c-0.2-0.8-0.4-1.6-0.6-2.4h-1.1v3.4h0.7v-2.2h0.1c0.2,0.7,0.4,1.5,0.5,2.2
	h0.7c0.2-0.7,0.3-1.3,0.5-2h0.1v2c0.3,0,0.4,0,0.7,0v-3.4H-218.5z M-352.2,414.5c0.5-0.1,1-0.2,1.4-0.4c0.5-0.2,1-0.6,1-1.3
	c0-0.7-0.4-1.1-1-1.3c-0.5-0.2-1-0.3-1.5-0.4c-0.7,0-1.4,0.1-2,0.6c-0.7,0.6-0.8,1.4,0,2.1C-353.6,414.3-353,414.5-352.2,414.5
	 M-228.4,414.5c0.5-0.1,1-0.2,1.4-0.4c0.5-0.2,1-0.5,1.1-1.1c0.1-0.6-0.2-1.1-0.8-1.4c-0.5-0.3-1.1-0.4-1.7-0.4
	c-0.8,0-1.5,0.1-2.1,0.7c-0.6,0.6-0.6,1.3,0,1.9C-229.8,414.3-229.1,414.4-228.4,414.5 M-230.8,425.4c0,1.8,0,3.6,0,5.5
	c0,0.4,0.1,0.8,0.3,1.2c0.6,1.1,1.7,1.5,2.5,1.4c1.4-0.2,2.3-1.2,2.3-2.6c0-0.5,0-0.9,0-1.4c0-3.1,0-6.1,0-9.2c0-0.5,0-1-0.3-1.5
	c-0.7-1.2-1.7-1.6-2.9-1.3c-1.2,0.3-1.9,1.5-1.9,2.5C-230.8,421.8-230.8,423.6-230.8,425.4 M-349.7,425.4L-349.7,425.4
	c0-1.8,0-3.6,0-5.5c0-1.3-1.1-2.7-2.7-2.5c-1.3,0.1-2.3,1.1-2.3,2.4c0,0.7,0,1.4,0,2.1c0,3,0,6.1,0,9.1c0,1,0.6,1.8,1.5,2.2
	c1,0.5,1.9,0.3,2.7-0.4c0.6-0.5,0.9-1.2,0.9-2C-349.7,429-349.7,427.2-349.7,425.4 M-412,425.5c0-1.7,0-3.5,0-5.2
	c0-0.3,0-0.6-0.1-0.9c-0.4-1.1-1.4-2-2.9-1.7c-0.9,0.1-2.1,1-2.1,2.5c0,3.6,0,7.1,0,10.7c0,0.6,0.2,1.1,0.6,1.6
	c0.6,0.7,1.3,1.1,2.2,0.9c1.5-0.2,2.3-1.4,2.3-2.7C-412,429-412,427.3-412,425.5 M-288.1,425.5c0-1.8,0-3.6,0-5.3v-0.1
	c0-1.5-1.7-3.1-3.7-2.2c-1,0.5-1.4,1.3-1.4,2.4c0,3.5,0,7,0,10.5c0,0.3,0,0.6,0.1,0.8c0.4,1.2,1.5,1.9,2.6,1.8
	c1.3-0.1,2.4-1.2,2.4-2.6C-288.1,429.1-288.1,427.3-288.1,425.5 M-451,426.6L-451,426.6c0.7,0.1,1.4,0.1,2.1,0
	c0.7,0,1.2-0.5,1.2-1.2c0-0.7-0.5-1.2-1.2-1.3c-0.2,0-0.4,0-0.6,0c-0.6,0-1.3,0-1.9,0c-0.8-0.2-1.4-0.7-1.6-1.4
	c-0.3-0.8-0.1-1.4,0.4-2c0.5-0.5,1.1-0.6,1.8-0.6c4.1,0,8.2,0,12.3,0c0.2,0,0.3,0,0.5,0c0.6,0,1-0.4,1.2-1c0.1-0.6-0.1-1.2-0.6-1.4
	c-0.3-0.1-0.6-0.1-0.9-0.1c-4.7,0-9.4,0-14.1,0c-0.2,0-0.3,0-0.5,0c-1.1,0-2,0.4-2.8,1.2c-1.3,1.3-1.8,2.8-1.3,4.6
	c0.5,1.9,1.8,3.1,3.7,3.3C-452.6,426.7-451.8,426.6-451,426.6 M-321.8,417.4c-2.3,0-4.6,0-6.9,0c-1.3,0-2.4,0.4-3.3,1.3
	c-1.3,1.3-1.9,3.3-1.1,5c0.8,1.9,2.3,2.9,4.4,2.9c1.1,0,2.2,0,3.3,0c0.2,0,0.4,0,0.6,0c0.6-0.1,1-0.6,1-1.2c0-0.6-0.4-1.1-1-1.2
	c-0.2-0.1-0.4-0.1-0.7-0.1c-0.7,0-1.4,0-2.1,0c-1.1-0.1-1.9-1-1.8-2c0-1.1,0.8-1.9,1.9-2c0.2,0,0.4,0,0.6,0c4,0,8.1,0,12.1,0
	c0.2,0,0.3,0,0.5,0c0.6,0,1-0.4,1.2-1c0.1-0.5-0.1-1.1-0.6-1.3c-0.3-0.1-0.6-0.2-0.9-0.2C-316.8,417.4-319.3,417.4-321.8,417.4
	 M-272.1,417.4c-2.3,0-4.5,0-6.8,0c-0.6,0-1.2,0-1.8,0.2c-1.9,0.7-3.2,2.4-3,4.6c0.1,2.6,2.2,4.4,4.7,4.4c1.1,0,2.3,0,3.4,0
	c0.2,0,0.4,0,0.7-0.1c0.5-0.1,0.9-0.7,0.9-1.2s-0.4-1-0.9-1.2c-0.2-0.1-0.5-0.1-0.8-0.1c-0.7,0-1.4,0-2.1,0c-1-0.1-1.6-0.8-1.8-1.7
	c-0.1-0.7,0.3-1.7,1.1-2c0.4-0.2,0.8-0.2,1.2-0.2c4.1,0,8.2,0,12.3,0c0.2,0,0.4,0,0.5,0c0.5,0,1-0.5,1.1-1s-0.1-1.1-0.5-1.4
	c-0.3-0.1-0.6-0.2-0.9-0.2C-267.2,417.4-269.6,417.4-272.1,417.4 M-396,417.4c-2.2,0-4.5,0-6.7,0c-0.4,0-0.8,0-1.2,0.1
	c-2.1,0.5-3.6,2.2-3.7,4.4c-0.1,2.5,1.9,4.7,4.5,4.7c1.3,0,2.5,0,3.8,0c0.2,0,0.4,0,0.6-0.1c0.7-0.2,1-1,0.7-1.7
	c-0.3-0.5-0.7-0.7-1.3-0.7c-0.7,0-1.5,0-2.2,0c-1-0.1-1.7-0.8-1.9-1.8c-0.1-0.8,0.4-1.8,1.3-2.1c0.3-0.1,0.7-0.1,1.1-0.1
	c4.1,0,8.2,0,12.3,0c0.2,0,0.4,0,0.5,0c0.9-0.1,1.4-1.1,1-1.8c-0.3-0.5-0.7-0.7-1.3-0.7C-391,417.5-393.5,417.4-396,417.4
	 M-448.4,433.2c0.3,0,0.6,0,1,0c2.1,0,4.2,0,6.4,0c1.5,0,3.5-1.2,4.1-3.3c0.8-3.3-1.5-5.9-4.5-5.9c-1.2,0-2.4,0-3.6,0
	c-0.2,0-0.5,0-0.7,0.1c-0.5,0.2-0.9,0.7-0.8,1.2c0,0.5,0.4,1,0.9,1.2c0.2,0.1,0.5,0.1,0.7,0.1c0.7,0,1.5,0,2.2,0
	c0.8,0.1,1.4,0.5,1.6,1.3c0.2,0.7,0.2,1.4-0.4,2.1c-0.5,0.5-1.1,0.7-1.8,0.7c-4.1,0-8.2,0-12.3,0c-0.2,0-0.3,0-0.5,0
	c-1,0.1-1.5,1.2-1,2c0.3,0.4,0.7,0.6,1.2,0.6C-453.4,433.2-450.9,433.2-448.4,433.2 M-324.5,433.2c0.4,0,0.7,0,1.1,0
	c2.1,0,4.2,0,6.4,0c1.3,0,2.4-0.7,3.2-1.7c1.1-1.5,1.3-3.1,0.5-4.8c-0.6-1.3-1.7-2.2-3.1-2.5c-1.7-0.3-3.3-0.1-5-0.1c0,0,0,0-0.1,0
	c-0.7,0.1-1.2,0.6-1.2,1.3c0,0.6,0.5,1.2,1.2,1.3c0.3,0,0.5,0,0.8,0c0.7,0,1.3,0,2,0.1c1.4,0.2,2.1,1.8,1.4,3c-0.4,0.7-1.1,1-1.9,1
	c-4.1,0-8.2,0-12.4,0c-0.2,0-0.3,0-0.5,0c-1.2,0.1-1.4,1.3-1,2c0.3,0.4,0.7,0.6,1.2,0.6C-329.5,433.2-327,433.2-324.5,433.2
	 M-274.9,433.2L-274.9,433.2c2.3,0,4.6,0,7,0c0.8,0,1.6-0.2,2.4-0.6c1.9-1.1,2.9-3.5,2-5.6c-0.7-1.8-2.3-2.9-4.4-2.9
	c-1.2,0-2.3,0-3.5,0c-0.2,0-0.5,0-0.7,0.1c-0.5,0.2-0.9,0.6-0.9,1.2c0,0.6,0.4,1.1,0.9,1.2c0.2,0.1,0.5,0.1,0.7,0.1
	c0.7,0,1.4,0,2.1,0c0.9,0.1,1.6,0.7,1.8,1.5c0.2,0.8-0.2,1.7-0.9,2.2c-0.4,0.3-0.9,0.3-1.4,0.3c-4.1,0-8.2,0-12.2,0
	c-0.2,0-0.3,0-0.5,0c-1,0.1-1.5,1-1.1,1.9c0.3,0.5,0.7,0.7,1.2,0.7C-279.9,433.2-277.4,433.2-274.9,433.2 M-398.8,433.2
	L-398.8,433.2c2.3,0,4.6,0,7,0c0.4,0,0.8,0,1.1-0.1c2.9-0.8,4.4-3.8,3.1-6.5c-0.7-1.4-1.8-2.3-3.3-2.5c-1.6-0.1-3.2-0.1-4.8-0.1
	h-0.1c-0.6,0.1-1.1,0.6-1,1.3c0,0.6,0.4,1.1,1.1,1.2c0.2,0,0.5,0,0.7,0c0.7,0,1.4,0,2.1,0c1.4,0.2,2.2,1.8,1.4,3.1
	c-0.5,0.7-1.1,1-2,1c-4.1,0-8.2,0-12.3,0c-0.2,0-0.4,0-0.5,0c-0.9,0.1-1.4,1.1-1,1.9c0.3,0.5,0.7,0.6,1.2,0.6
	C-403.8,433.2-401.3,433.2-398.8,433.2 M-308.6,425.5c0,1.7,0,3.5,0,5.2c0,1.5,1.2,2.7,2.7,2.7c1.1,0,2.2,0,3.3,0c1.8,0,3.7,0,5.5,0
	c0.5,0,0.9-0.1,1.2-0.5c0.4-0.4,0.4-0.9,0.2-1.4s-0.6-0.8-1.1-0.8c-1.7,0-3.4,0-5,0c-0.3,0-0.5,0-0.8-0.1c-0.6-0.3-0.9-0.8-0.9-1.5
	c0-2.9,0-5.8,0-8.7c0-0.3,0-0.6-0.1-0.9c-0.4-1.7-2.1-2.5-3.6-1.8c-0.9,0.5-1.4,1.2-1.4,2.3C-308.6,422-308.6,423.7-308.6,425.5
	 M-427.4,424.7c0-1.5,0-3,0-4.5c0-0.4-0.1-0.8-0.2-1.1c-0.9-2-3.2-1.8-4.2-0.7c-0.5,0.6-0.7,1.2-0.7,1.9c0,3.4,0,6.9,0,10.3
	c0,0.1,0,0.2,0,0.3c0.1,1.4,1.2,2.4,2.6,2.5c3,0,6,0,9,0c0.8,0,1.4-0.6,1.4-1.4c0-0.8-0.6-1.2-1.4-1.2c-1.6,0-3.3,0-4.9,0
	c-0.9,0-1.7-0.7-1.6-1.6C-427.4,427.7-427.4,426.2-427.4,424.7 M-361.4,425.4c0-1.8,0-3.6,0-5.4c0-1.2-0.8-2.1-1.6-2.4
	c-0.3-0.1-0.7-0.1-1-0.1c-3.4,0-6.7,0-10.1,0c-0.1,0-0.2,0-0.4,0c-0.7,0.1-1.2,1.1-0.9,1.7c0.3,0.6,0.6,0.9,1.4,0.9c2,0,4,0,5.9,0
	c0.5,0,1,0.1,1.3,0.6c0.3,0.4,0.3,0.8,0.3,1.2c0,2.9,0,5.8,0,8.7c0,0.2,0,0.5,0,0.7c0.1,1.6,2.1,2.9,3.8,1.9
	c0.8-0.5,1.2-1.3,1.2-2.3C-361.4,429-361.4,427.2-361.4,425.4 M-237.5,425.5L-237.5,425.5c0-1.9,0-3.7,0-5.6c0-0.9-0.4-1.6-1.2-2.1
	c-0.5-0.3-1-0.4-1.6-0.4c-3.1,0-6.2,0-9.3,0c-0.3,0-0.6,0-0.9,0c-0.5,0.1-0.8,0.4-1,0.8c-0.3,0.9,0.3,1.7,1.3,1.7c1.9,0,3.8,0,5.8,0
	c0.2,0,0.4,0,0.5,0c0.6,0,1.1,0.4,1.3,1c0.1,0.3,0.1,0.6,0.1,0.9c0,2.9,0,5.7,0,8.6c0,0.4,0,0.7,0.1,1.1c0.3,1.4,2,2.1,3,1.8
	c1-0.3,2-1.3,1.9-2.5C-237.5,429-237.5,427.2-237.5,425.5 M-376.8,422.3c0-2.9,0-5.8,0-8.7c0-1.8-2-3.1-3.8-2.1
	c-0.9,0.5-1.2,1.3-1.2,2.3c0,5.7,0,11.3,0,17c0,0.3,0.1,0.6,0.2,1c0.4,1.3,2,2,3.1,1.6c1.2-0.4,1.8-1.5,1.8-2.5
	C-376.8,428-376.8,425.2-376.8,422.3 M-252.9,422.3c0-2.9,0-5.7,0-8.6c0-0.2,0-0.5,0-0.7c-0.4-1-1-1.7-2.1-1.8
	c-0.9-0.1-1.9,0.3-2.4,1.1c-0.4,0.5-0.4,1.1-0.4,1.7c0,5.5,0,11,0,16.6c0,0.3,0,0.6,0,0.8c0.3,1.3,1.5,2.1,2.6,2
	c1.4-0.1,2.4-1.4,2.3-2.6C-253,428-252.9,425.1-252.9,422.3 M-196.4,424.5c-0.7-0.1-1.4-0.2-2-0.3c-1.2-0.2-2.2-0.7-3.1-1.5
	c-1.5-1.3-2.6-2.9-3.3-4.8c-0.6-1.7-0.8-3.5-0.1-5.2c0.4-0.9,0.8-1.8,1.3-2.7c1.3-2.3,2.7-4.6,3.6-7.2c0.8-2.1,1.2-4.3,0.7-6.5
	c-0.3-1.5-1.1-2.6-2.3-3.4c-0.4-0.3-0.9-0.4-1.4-0.4c-0.6,0-1.1,0.1-1.6,0.4c-1.4,0.6-2.7,1.5-3.7,2.7c-1.4,1.6-2.2,3.6-2.7,5.6
	c-0.5,1.9-0.6,3.9-0.4,5.9c0.2,1.3,0.4,2.6,0.7,3.8c0.5,1.9,1.4,3.6,2.5,5.2c1.5,2.1,2.9,4.2,4.4,6.3c0.5,0.7,1,1.4,1.3,2.2
	c0.4,0.9,0.6,1.9,0.1,2.9c-0.1,0.3-0.2,0.6-0.3,0.8c-0.1,0.3-0.3,0.6-0.2,1c0.5,0.1,0.8-0.1,1.2-0.3c1.2-0.7,1.7-1.9,2.1-3.2
	C-198.3,426-197.2,425.8-196.4,424.5 M-198.1,440.5c0.2,0,0.3,0,0.4,0c1.8-0.4,3.3-1.2,4.6-2.4c1.7-1.5,3-3.2,4.1-5.1
	c1.3-2.1,2.2-4.3,3-6.6c0.6-1.7,0.9-3.4,1.1-5.1c0.1-1.4,0.2-2.9,0.1-4.4c-0.1-1.8-0.4-3.6-1-5.4c-0.6-1.7-1.4-3.3-2.7-4.6
	c-1-1.1-2.2-1.9-3.7-2.2c-0.9-0.2-1.9-0.1-2.7,0.5c-0.5,0.4-1,0.9-1.3,1.5c-0.7,1.2-1,2.5-1.1,3.9c-0.1,2,0.1,3.9,0.6,5.8
	c0.5,1.8,1,3.6,2,5.2c0.7,1.2,1.5,2.3,2.2,3.4c0.9,1.3,1.7,2.6,2.2,4.1c0.7,1.9-0.2,4.3-1.9,5.4c-1,0.6-2.2,1-3.4,1.1
	c-1.3,0.2-2.6,0.2-3.9,0.2c-0.1,0-0.2,0-0.4,0.1c0.9,1.3,2.3,1.3,3.7,1.6C-197.2,438.3-198,439.1-198.1,440.5"/>
<path class="st1" d="M-222.2,415v-2.8c0.4,0,0.6-0.1,1-0.1v-0.5c-0.8-0.1-2.6-0.1-2.7,0v0.5c0.3,0,0.6,0.1,1,0.1v2.8H-222.2z
	 M-218.5,411.6c-0.2,0.8-0.4,1.6-0.6,2.4c0,0,0,0-0.1,0c-0.2-0.8-0.4-1.6-0.6-2.4h-1.1v3.4h0.7v-2.2h0.1c0.2,0.7,0.4,1.5,0.5,2.2
	h0.7c0.2-0.7,0.3-1.3,0.5-2h0.1v2c0.3,0,0.4,0,0.7,0v-3.4H-218.5z M-352.2,414.5c0.5-0.1,1-0.2,1.4-0.4c0.5-0.2,1-0.6,1-1.3
	c0-0.7-0.4-1.1-1-1.3c-0.5-0.2-1-0.3-1.5-0.4c-0.7,0-1.4,0.1-2,0.6c-0.7,0.6-0.8,1.4,0,2.1C-353.6,414.3-353,414.5-352.2,414.5z
	 M-228.4,414.5c0.5-0.1,1-0.2,1.4-0.4c0.5-0.2,1-0.5,1.1-1.1c0.1-0.6-0.2-1.1-0.8-1.4c-0.5-0.3-1.1-0.4-1.7-0.4
	c-0.8,0-1.5,0.1-2.1,0.7c-0.6,0.6-0.6,1.3,0,1.9C-229.8,414.3-229.1,414.4-228.4,414.5z M-230.8,425.4c0,1.8,0,3.6,0,5.5
	c0,0.4,0.1,0.8,0.3,1.2c0.6,1.1,1.7,1.5,2.5,1.4c1.4-0.2,2.3-1.2,2.3-2.6c0-0.5,0-0.9,0-1.4c0-3.1,0-6.1,0-9.2c0-0.5,0-1-0.3-1.5
	c-0.7-1.2-1.7-1.6-2.9-1.3c-1.2,0.3-1.9,1.5-1.9,2.5C-230.8,421.8-230.8,423.6-230.8,425.4z M-349.7,425.4L-349.7,425.4
	c0-1.8,0-3.6,0-5.5c0-1.3-1.1-2.7-2.7-2.5c-1.3,0.1-2.3,1.1-2.3,2.4c0,0.7,0,1.4,0,2.1c0,3,0,6.1,0,9.1c0,1,0.6,1.8,1.5,2.2
	c1,0.5,1.9,0.3,2.7-0.4c0.6-0.5,0.9-1.2,0.9-2C-349.7,429-349.7,427.2-349.7,425.4z M-412,425.5c0-1.7,0-3.5,0-5.2
	c0-0.3,0-0.6-0.1-0.9c-0.4-1.1-1.4-2-2.9-1.7c-0.9,0.1-2.1,1-2.1,2.5c0,3.6,0,7.1,0,10.7c0,0.6,0.2,1.1,0.6,1.6
	c0.6,0.7,1.3,1.1,2.2,0.9c1.5-0.2,2.3-1.4,2.3-2.7C-412,429-412,427.3-412,425.5z M-288.1,425.5c0-1.8,0-3.6,0-5.3v-0.1
	c0-1.5-1.7-3.1-3.7-2.2c-1,0.5-1.4,1.3-1.4,2.4c0,3.5,0,7,0,10.5c0,0.3,0,0.6,0.1,0.8c0.4,1.2,1.5,1.9,2.6,1.8
	c1.3-0.1,2.4-1.2,2.4-2.6C-288.1,429.1-288.1,427.3-288.1,425.5z M-451,426.6L-451,426.6c0.7,0.1,1.4,0.1,2.1,0
	c0.7,0,1.2-0.5,1.2-1.2c0-0.7-0.5-1.2-1.2-1.3c-0.2,0-0.4,0-0.6,0c-0.6,0-1.3,0-1.9,0c-0.8-0.2-1.4-0.7-1.6-1.4
	c-0.3-0.8-0.1-1.4,0.4-2c0.5-0.5,1.1-0.6,1.8-0.6c4.1,0,8.2,0,12.3,0c0.2,0,0.3,0,0.5,0c0.6,0,1-0.4,1.2-1c0.1-0.6-0.1-1.2-0.6-1.4
	c-0.3-0.1-0.6-0.1-0.9-0.1c-4.7,0-9.4,0-14.1,0c-0.2,0-0.3,0-0.5,0c-1.1,0-2,0.4-2.8,1.2c-1.3,1.3-1.8,2.8-1.3,4.6
	c0.5,1.9,1.8,3.1,3.7,3.3C-452.6,426.7-451.8,426.6-451,426.6z M-321.8,417.4c-2.3,0-4.6,0-6.9,0c-1.3,0-2.4,0.4-3.3,1.3
	c-1.3,1.3-1.9,3.3-1.1,5c0.8,1.9,2.3,2.9,4.4,2.9c1.1,0,2.2,0,3.3,0c0.2,0,0.4,0,0.6,0c0.6-0.1,1-0.6,1-1.2c0-0.6-0.4-1.1-1-1.2
	c-0.2-0.1-0.4-0.1-0.7-0.1c-0.7,0-1.4,0-2.1,0c-1.1-0.1-1.9-1-1.8-2c0-1.1,0.8-1.9,1.9-2c0.2,0,0.4,0,0.6,0c4,0,8.1,0,12.1,0
	c0.2,0,0.3,0,0.5,0c0.6,0,1-0.4,1.2-1c0.1-0.5-0.1-1.1-0.6-1.3c-0.3-0.1-0.6-0.2-0.9-0.2C-316.8,417.4-319.3,417.4-321.8,417.4z
	 M-272.1,417.4c-2.3,0-4.5,0-6.8,0c-0.6,0-1.2,0-1.8,0.2c-1.9,0.7-3.2,2.4-3,4.6c0.1,2.6,2.2,4.4,4.7,4.4c1.1,0,2.3,0,3.4,0
	c0.2,0,0.4,0,0.7-0.1c0.5-0.1,0.9-0.7,0.9-1.2s-0.4-1-0.9-1.2c-0.2-0.1-0.5-0.1-0.8-0.1c-0.7,0-1.4,0-2.1,0c-1-0.1-1.6-0.8-1.8-1.7
	c-0.1-0.7,0.3-1.7,1.1-2c0.4-0.2,0.8-0.2,1.2-0.2c4.1,0,8.2,0,12.3,0c0.2,0,0.4,0,0.5,0c0.5,0,1-0.5,1.1-1s-0.1-1.1-0.5-1.4
	c-0.3-0.1-0.6-0.2-0.9-0.2C-267.2,417.4-269.6,417.4-272.1,417.4z M-396,417.4c-2.2,0-4.5,0-6.7,0c-0.4,0-0.8,0-1.2,0.1
	c-2.1,0.5-3.6,2.2-3.7,4.4c-0.1,2.5,1.9,4.7,4.5,4.7c1.3,0,2.5,0,3.8,0c0.2,0,0.4,0,0.6-0.1c0.7-0.2,1-1,0.7-1.7
	c-0.3-0.5-0.7-0.7-1.3-0.7c-0.7,0-1.5,0-2.2,0c-1-0.1-1.7-0.8-1.9-1.8c-0.1-0.8,0.4-1.8,1.3-2.1c0.3-0.1,0.7-0.1,1.1-0.1
	c4.1,0,8.2,0,12.3,0c0.2,0,0.4,0,0.5,0c0.9-0.1,1.4-1.1,1-1.8c-0.3-0.5-0.7-0.7-1.3-0.7C-391,417.5-393.5,417.4-396,417.4z
	 M-448.4,433.2c0.3,0,0.6,0,1,0c2.1,0,4.2,0,6.4,0c1.5,0,3.5-1.2,4.1-3.3c0.8-3.3-1.5-5.9-4.5-5.9c-1.2,0-2.4,0-3.6,0
	c-0.2,0-0.5,0-0.7,0.1c-0.5,0.2-0.9,0.7-0.8,1.2c0,0.5,0.4,1,0.9,1.2c0.2,0.1,0.5,0.1,0.7,0.1c0.7,0,1.5,0,2.2,0
	c0.8,0.1,1.4,0.5,1.6,1.3c0.2,0.7,0.2,1.4-0.4,2.1c-0.5,0.5-1.1,0.7-1.8,0.7c-4.1,0-8.2,0-12.3,0c-0.2,0-0.3,0-0.5,0
	c-1,0.1-1.5,1.2-1,2c0.3,0.4,0.7,0.6,1.2,0.6C-453.4,433.2-450.9,433.2-448.4,433.2z M-324.5,433.2c0.4,0,0.7,0,1.1,0
	c2.1,0,4.2,0,6.4,0c1.3,0,2.4-0.7,3.2-1.7c1.1-1.5,1.3-3.1,0.5-4.8c-0.6-1.3-1.7-2.2-3.1-2.5c-1.7-0.3-3.3-0.1-5-0.1c0,0,0,0-0.1,0
	c-0.7,0.1-1.2,0.6-1.2,1.3c0,0.6,0.5,1.2,1.2,1.3c0.3,0,0.5,0,0.8,0c0.7,0,1.3,0,2,0.1c1.4,0.2,2.1,1.8,1.4,3c-0.4,0.7-1.1,1-1.9,1
	c-4.1,0-8.2,0-12.4,0c-0.2,0-0.3,0-0.5,0c-1.2,0.1-1.4,1.3-1,2c0.3,0.4,0.7,0.6,1.2,0.6C-329.5,433.2-327,433.2-324.5,433.2z
	 M-274.9,433.2L-274.9,433.2c2.3,0,4.6,0,7,0c0.8,0,1.6-0.2,2.4-0.6c1.9-1.1,2.9-3.5,2-5.6c-0.7-1.8-2.3-2.9-4.4-2.9
	c-1.2,0-2.3,0-3.5,0c-0.2,0-0.5,0-0.7,0.1c-0.5,0.2-0.9,0.6-0.9,1.2c0,0.6,0.4,1.1,0.9,1.2c0.2,0.1,0.5,0.1,0.7,0.1
	c0.7,0,1.4,0,2.1,0c0.9,0.1,1.6,0.7,1.8,1.5c0.2,0.8-0.2,1.7-0.9,2.2c-0.4,0.3-0.9,0.3-1.4,0.3c-4.1,0-8.2,0-12.2,0
	c-0.2,0-0.3,0-0.5,0c-1,0.1-1.5,1-1.1,1.9c0.3,0.5,0.7,0.7,1.2,0.7C-279.9,433.2-277.4,433.2-274.9,433.2z M-398.8,433.2
	L-398.8,433.2c2.3,0,4.6,0,7,0c0.4,0,0.8,0,1.1-0.1c2.9-0.8,4.4-3.8,3.1-6.5c-0.7-1.4-1.8-2.3-3.3-2.5c-1.6-0.1-3.2-0.1-4.8-0.1
	h-0.1c-0.6,0.1-1.1,0.6-1,1.3c0,0.6,0.4,1.1,1.1,1.2c0.2,0,0.5,0,0.7,0c0.7,0,1.4,0,2.1,0c1.4,0.2,2.2,1.8,1.4,3.1
	c-0.5,0.7-1.1,1-2,1c-4.1,0-8.2,0-12.3,0c-0.2,0-0.4,0-0.5,0c-0.9,0.1-1.4,1.1-1,1.9c0.3,0.5,0.7,0.6,1.2,0.6
	C-403.8,433.2-401.3,433.2-398.8,433.2z M-308.6,425.5c0,1.7,0,3.5,0,5.2c0,1.5,1.2,2.7,2.7,2.7c1.1,0,2.2,0,3.3,0
	c1.8,0,3.7,0,5.5,0c0.5,0,0.9-0.1,1.2-0.5c0.4-0.4,0.4-0.9,0.2-1.4s-0.6-0.8-1.1-0.8c-1.7,0-3.4,0-5,0c-0.3,0-0.5,0-0.8-0.1
	c-0.6-0.3-0.9-0.8-0.9-1.5c0-2.9,0-5.8,0-8.7c0-0.3,0-0.6-0.1-0.9c-0.4-1.7-2.1-2.5-3.6-1.8c-0.9,0.5-1.4,1.2-1.4,2.3
	C-308.6,422-308.6,423.7-308.6,425.5z M-427.4,424.7c0-1.5,0-3,0-4.5c0-0.4-0.1-0.8-0.2-1.1c-0.9-2-3.2-1.8-4.2-0.7
	c-0.5,0.6-0.7,1.2-0.7,1.9c0,3.4,0,6.9,0,10.3c0,0.1,0,0.2,0,0.3c0.1,1.4,1.2,2.4,2.6,2.5c3,0,6,0,9,0c0.8,0,1.4-0.6,1.4-1.4
	c0-0.8-0.6-1.2-1.4-1.2c-1.6,0-3.3,0-4.9,0c-0.9,0-1.7-0.7-1.6-1.6C-427.4,427.7-427.4,426.2-427.4,424.7z M-361.4,425.4
	c0-1.8,0-3.6,0-5.4c0-1.2-0.8-2.1-1.6-2.4c-0.3-0.1-0.7-0.1-1-0.1c-3.4,0-6.7,0-10.1,0c-0.1,0-0.2,0-0.4,0c-0.7,0.1-1.2,1.1-0.9,1.7
	c0.3,0.6,0.6,0.9,1.4,0.9c2,0,4,0,5.9,0c0.5,0,1,0.1,1.3,0.6c0.3,0.4,0.3,0.8,0.3,1.2c0,2.9,0,5.8,0,8.7c0,0.2,0,0.5,0,0.7
	c0.1,1.6,2.1,2.9,3.8,1.9c0.8-0.5,1.2-1.3,1.2-2.3C-361.4,429-361.4,427.2-361.4,425.4z M-237.5,425.5L-237.5,425.5
	c0-1.9,0-3.7,0-5.6c0-0.9-0.4-1.6-1.2-2.1c-0.5-0.3-1-0.4-1.6-0.4c-3.1,0-6.2,0-9.3,0c-0.3,0-0.6,0-0.9,0c-0.5,0.1-0.8,0.4-1,0.8
	c-0.3,0.9,0.3,1.7,1.3,1.7c1.9,0,3.8,0,5.8,0c0.2,0,0.4,0,0.5,0c0.6,0,1.1,0.4,1.3,1c0.1,0.3,0.1,0.6,0.1,0.9c0,2.9,0,5.7,0,8.6
	c0,0.4,0,0.7,0.1,1.1c0.3,1.4,2,2.1,3,1.8c1-0.3,2-1.3,1.9-2.5C-237.5,429-237.5,427.2-237.5,425.5z M-376.8,422.3
	c0-2.9,0-5.8,0-8.7c0-1.8-2-3.1-3.8-2.1c-0.9,0.5-1.2,1.3-1.2,2.3c0,5.7,0,11.3,0,17c0,0.3,0.1,0.6,0.2,1c0.4,1.3,2,2,3.1,1.6
	c1.2-0.4,1.8-1.5,1.8-2.5C-376.8,428-376.8,425.2-376.8,422.3z M-252.9,422.3c0-2.9,0-5.7,0-8.6c0-0.2,0-0.5,0-0.7
	c-0.4-1-1-1.7-2.1-1.8c-0.9-0.1-1.9,0.3-2.4,1.1c-0.4,0.5-0.4,1.1-0.4,1.7c0,5.5,0,11,0,16.6c0,0.3,0,0.6,0,0.8
	c0.3,1.3,1.5,2.1,2.6,2c1.4-0.1,2.4-1.4,2.3-2.6C-253,428-252.9,425.1-252.9,422.3z M-196.4,424.5c-0.7-0.1-1.4-0.2-2-0.3
	c-1.2-0.2-2.2-0.7-3.1-1.5c-1.5-1.3-2.6-2.9-3.3-4.8c-0.6-1.7-0.8-3.5-0.1-5.2c0.4-0.9,0.8-1.8,1.3-2.7c1.3-2.3,2.7-4.6,3.6-7.2
	c0.8-2.1,1.2-4.3,0.7-6.5c-0.3-1.5-1.1-2.6-2.3-3.4c-0.4-0.3-0.9-0.4-1.4-0.4c-0.6,0-1.1,0.1-1.6,0.4c-1.4,0.6-2.7,1.5-3.7,2.7
	c-1.4,1.6-2.2,3.6-2.7,5.6c-0.5,1.9-0.6,3.9-0.4,5.9c0.2,1.3,0.4,2.6,0.7,3.8c0.5,1.9,1.4,3.6,2.5,5.2c1.5,2.1,2.9,4.2,4.4,6.3
	c0.5,0.7,1,1.4,1.3,2.2c0.4,0.9,0.6,1.9,0.1,2.9c-0.1,0.3-0.2,0.6-0.3,0.8c-0.1,0.3-0.3,0.6-0.2,1c0.5,0.1,0.8-0.1,1.2-0.3
	c1.2-0.7,1.7-1.9,2.1-3.2C-198.3,426-197.2,425.8-196.4,424.5z M-198.1,440.5c0.2,0,0.3,0,0.4,0c1.8-0.4,3.3-1.2,4.6-2.4
	c1.7-1.5,3-3.2,4.1-5.1c1.3-2.1,2.2-4.3,3-6.6c0.6-1.7,0.9-3.4,1.1-5.1c0.1-1.4,0.2-2.9,0.1-4.4c-0.1-1.8-0.4-3.6-1-5.4
	c-0.6-1.7-1.4-3.3-2.7-4.6c-1-1.1-2.2-1.9-3.7-2.2c-0.9-0.2-1.9-0.1-2.7,0.5c-0.5,0.4-1,0.9-1.3,1.5c-0.7,1.2-1,2.5-1.1,3.9
	c-0.1,2,0.1,3.9,0.6,5.8c0.5,1.8,1,3.6,2,5.2c0.7,1.2,1.5,2.3,2.2,3.4c0.9,1.3,1.7,2.6,2.2,4.1c0.7,1.9-0.2,4.3-1.9,5.4
	c-1,0.6-2.2,1-3.4,1.1c-1.3,0.2-2.6,0.2-3.9,0.2c-0.1,0-0.2,0-0.4,0.1c0.9,1.3,2.3,1.3,3.7,1.6C-197.2,438.3-198,439.1-198.1,440.5z
	"/>
<path class="st2" d="M-198.1,440.5c0.1-1.3,0.9-2.2,2.1-2.9c-1.4-0.3-2.9-0.3-3.7-1.6c0.2,0,0.3-0.1,0.4-0.1c1.3,0,2.6,0,3.9-0.2
	c1.2-0.2,2.3-0.5,3.4-1.1c1.7-1.1,2.6-3.5,1.9-5.4c-0.6-1.5-1.4-2.8-2.2-4.1c-0.8-1.1-1.5-2.3-2.2-3.4c-1-1.6-1.5-3.4-2-5.2
	c-0.5-1.9-0.7-3.9-0.6-5.8c0.1-1.4,0.4-2.7,1.1-3.9c0.3-0.6,0.8-1.1,1.3-1.5c0.8-0.6,1.7-0.7,2.7-0.5c1.5,0.3,2.7,1.1,3.7,2.2
	c1.2,1.3,2.1,2.9,2.7,4.6c0.6,1.7,0.9,3.5,1,5.4c0.1,1.5,0.1,2.9-0.1,4.4c-0.1,1.7-0.5,3.4-1.1,5.1c-0.8,2.3-1.7,4.5-3,6.6
	c-1.1,1.9-2.4,3.7-4.1,5.1c-1.3,1.2-2.8,2-4.6,2.4C-197.7,440.5-197.9,440.5-198.1,440.5"/>
<path class="st1" d="M-198.1,440.5c0.1-1.3,0.9-2.2,2.1-2.9c-1.4-0.3-2.9-0.3-3.7-1.6c0.2,0,0.3-0.1,0.4-0.1c1.3,0,2.6,0,3.9-0.2
	c1.2-0.2,2.3-0.5,3.4-1.1c1.7-1.1,2.6-3.5,1.9-5.4c-0.6-1.5-1.4-2.8-2.2-4.1c-0.8-1.1-1.5-2.3-2.2-3.4c-1-1.6-1.5-3.4-2-5.2
	c-0.5-1.9-0.7-3.9-0.6-5.8c0.1-1.4,0.4-2.7,1.1-3.9c0.3-0.6,0.8-1.1,1.3-1.5c0.8-0.6,1.7-0.7,2.7-0.5c1.5,0.3,2.7,1.1,3.7,2.2
	c1.2,1.3,2.1,2.9,2.7,4.6c0.6,1.7,0.9,3.5,1,5.4c0.1,1.5,0.1,2.9-0.1,4.4c-0.1,1.7-0.5,3.4-1.1,5.1c-0.8,2.3-1.7,4.5-3,6.6
	c-1.1,1.9-2.4,3.7-4.1,5.1c-1.3,1.2-2.8,2-4.6,2.4C-197.7,440.5-197.9,440.5-198.1,440.5z"/>
<path class="st3" d="M-196.4,424.5c-0.8,1.2-1.9,1.4-3.2,1.2c-0.4,1.3-0.9,2.5-2.1,3.2c-0.3,0.2-0.7,0.4-1.2,0.3
	c-0.1-0.4,0.1-0.7,0.2-1c0.1-0.3,0.2-0.6,0.3-0.8c0.5-1,0.3-2-0.1-2.9c-0.3-0.8-0.8-1.5-1.3-2.2c-1.4-2.1-2.9-4.2-4.4-6.3
	c-1.1-1.6-2-3.3-2.5-5.2c-0.4-1.2-0.6-2.5-0.7-3.8c-0.2-2-0.1-4,0.4-5.9c0.5-2.1,1.3-4,2.7-5.6c1-1.2,2.3-2.1,3.7-2.7
	c0.5-0.2,1-0.4,1.6-0.4c0.5,0,1,0.1,1.4,0.4c1.2,0.8,2,1.9,2.4,3.4c0.5,2.3,0.1,4.4-0.7,6.5c-0.9,2.5-2.3,4.8-3.6,7.2
	c-0.5,0.9-0.9,1.8-1.3,2.7c-0.7,1.7-0.6,3.5,0.1,5.2c0.7,1.9,1.7,3.5,3.3,4.8c0.9,0.8,1.9,1.3,3.1,1.5
	C-197.8,424.3-197.1,424.4-196.4,424.5"/>
<path class="st0" d="M-202.6,429.5c-0.1,0-0.2,0-0.3,0l-0.2,0l0-0.2c-0.1-0.4,0-0.7,0.1-0.9c0-0.1,0.1-0.1,0.1-0.2
	c0.1-0.3,0.2-0.6,0.3-0.8c0.4-0.8,0.4-1.6-0.1-2.7c-0.3-0.8-0.8-1.5-1.3-2.2c-1.4-2.1-2.9-4.2-4.4-6.3c-1.3-1.8-2.1-3.5-2.5-5.3
	c-0.4-1.1-0.6-2.3-0.7-3.8c-0.2-2.1-0.1-4.1,0.4-6c0.6-2.4,1.4-4.2,2.8-5.7c1-1.2,2.3-2.1,3.8-2.8c0.5-0.2,1.1-0.4,1.7-0.4
	c0.6,0,1.2,0.2,1.5,0.4c1.3,0.8,2.1,2,2.5,3.5c0.5,2.1,0.2,4.2-0.7,6.7c-0.7,2-1.8,3.9-2.8,5.8c-0.3,0.5-0.5,1-0.8,1.5
	c-0.5,0.9-0.9,1.8-1.3,2.7c-0.6,1.6-0.6,3.3,0.1,5c0.7,2,1.8,3.5,3.2,4.7c0.9,0.8,1.9,1.3,3,1.4c0.5,0.2,1.2,0.3,1.9,0.4l0.4,0.1
	l-0.2,0.3c-0.7,1.1-1.7,1.5-3.2,1.3c-0.4,1.2-0.9,2.4-2.1,3.1C-201.8,429.3-202.2,429.5-202.6,429.5z M-202.7,429
	C-202.7,429-202.7,429-202.7,429c0.4,0,0.6-0.1,0.8-0.3c1.2-0.7,1.7-1.9,2-3.1l0.1-0.2l0.2,0c1.3,0.2,2.1,0,2.7-0.8
	c-0.6-0.1-1.1-0.2-1.5-0.4c-1.2-0.2-2.2-0.7-3.2-1.5c-1.5-1.2-2.6-2.8-3.4-4.9c-0.8-1.8-0.8-3.7-0.1-5.4c0.4-0.9,0.8-1.8,1.3-2.7
	c0.3-0.5,0.5-1,0.8-1.5c1.1-1.9,2.1-3.7,2.8-5.7c0.9-2.4,1.1-4.4,0.7-6.4c-0.4-1.4-1.1-2.5-2.3-3.2c-0.3-0.2-0.7-0.4-1.3-0.4
	c-0.6,0-1,0.2-1.5,0.4c-1.4,0.6-2.7,1.5-3.6,2.6c-1.3,1.4-2.1,3.2-2.7,5.5c-0.5,1.8-0.6,3.7-0.4,5.8c0.1,1.5,0.3,2.7,0.7,3.7
	c0.4,1.7,1.3,3.4,2.5,5.1c1.5,2.1,3,4.2,4.4,6.3c0.5,0.7,1,1.4,1.3,2.2c0.5,1.2,0.5,2.2,0.1,3.1c-0.1,0.2-0.2,0.5-0.3,0.7
	c0,0.1-0.1,0.2-0.1,0.3C-202.6,428.7-202.7,428.8-202.7,429z"/>
<path class="st0" d="M-252.9,422.3c0,2.8,0,5.7,0,8.5c0,1.2-0.9,2.4-2.3,2.6c-1.1,0.1-2.4-0.7-2.6-2c-0.1-0.3,0-0.6,0-0.8
	c0-5.5,0-11,0-16.6c0-0.6,0-1.2,0.4-1.7c0.5-0.8,1.5-1.2,2.4-1.1c1.1,0.2,1.8,0.8,2.1,1.8c0.1,0.2,0,0.4,0,0.7
	C-252.9,416.6-252.9,419.4-252.9,422.3"/>
<path class="st0" d="M-376.8,422.3c0,2.8,0,5.7,0,8.5c0,0.9-0.6,2-1.8,2.5c-1.1,0.4-2.7-0.3-3.1-1.6c-0.1-0.3-0.2-0.6-0.2-1
	c0-5.7,0-11.3,0-17c0-1,0.4-1.8,1.2-2.3c1.8-1,3.8,0.3,3.8,2.1C-376.8,416.5-376.8,419.4-376.8,422.3"/>
<path class="st0" d="M-237.5,425.5c0,1.8,0,3.6,0,5.3c0,1.3-0.9,2.2-1.9,2.5c-1,0.3-2.7-0.4-3-1.8c-0.1-0.4-0.1-0.7-0.1-1.1
	c0-2.9,0-5.7,0-8.6c0-0.3,0-0.6-0.1-0.9c-0.2-0.6-0.6-0.9-1.3-1c-0.2,0-0.4,0-0.5,0c-1.9,0-3.8,0-5.8,0c-1,0-1.6-0.8-1.3-1.7
	c0.2-0.5,0.5-0.8,1-0.8c0.3,0,0.6,0,0.9,0c3.1,0,6.2,0,9.3,0c0.6,0,1.1,0,1.6,0.4c0.7,0.5,1.2,1.2,1.2,2.1
	C-237.5,421.7-237.5,423.6-237.5,425.5L-237.5,425.5z"/>
<path class="st0" d="M-361.4,425.4c0,1.8,0,3.6,0,5.3c0,1-0.4,1.8-1.2,2.3c-1.7,1.1-3.7-0.3-3.8-1.9c0-0.2,0-0.5,0-0.7
	c0-2.9,0-5.8,0-8.7c0-0.4,0-0.8-0.3-1.2c-0.3-0.4-0.8-0.6-1.3-0.6c-2,0-4,0-5.9,0c-0.7,0-1.1-0.3-1.4-0.9c-0.3-0.6,0.2-1.6,0.9-1.7
	c0.1,0,0.2,0,0.4,0c3.4,0,6.7,0,10.1,0c0.3,0,0.7,0,1,0.1c0.9,0.3,1.7,1.2,1.6,2.4C-361.4,421.8-361.4,423.6-361.4,425.4"/>
<path class="st0" d="M-427.4,424.7c0,1.5,0,3,0,4.5c0,0.9,0.7,1.6,1.6,1.6c1.6-0.1,3.3,0,4.9,0c0.8,0,1.4,0.5,1.4,1.2
	c0,0.8-0.6,1.4-1.4,1.4c-3,0-6,0-9,0c-1.4,0-2.5-1-2.6-2.5c0-0.1,0-0.2,0-0.3c0-3.4,0-6.9,0-10.3c0-0.7,0.2-1.3,0.7-1.9
	c0.9-1.1,3.3-1.3,4.2,0.7c0.2,0.3,0.2,0.7,0.2,1.1C-427.4,421.8-427.4,423.3-427.4,424.7"/>
<path class="st0" d="M-308.6,425.5c0-1.8,0-3.6,0-5.3c0-1,0.5-1.8,1.4-2.3c1.5-0.7,3.2,0.1,3.6,1.8c0.1,0.3,0.1,0.6,0.1,0.9
	c0,2.9,0,5.8,0,8.7c0,0.7,0.3,1.2,0.9,1.5c0.2,0.1,0.5,0.1,0.8,0.1c1.7,0,3.4,0,5,0c0.6,0,0.9,0.3,1.1,0.8s0.2,1-0.2,1.4
	c-0.3,0.3-0.7,0.5-1.2,0.5c-1.8,0-3.7,0-5.5,0c-1.1,0-2.2,0-3.3,0c-1.6,0-2.7-1.2-2.7-2.7C-308.6,429-308.6,427.3-308.6,425.5"/>
<path class="st0" d="M-398.8,433.2c-2.5,0-5,0-7.5,0c-0.5,0-0.9-0.2-1.2-0.6c-0.5-0.8,0-1.8,1-1.9c0.2,0,0.4,0,0.5,0
	c4.1,0,8.2,0,12.3,0c0.8,0,1.5-0.2,2-1c0.8-1.2,0-2.9-1.4-3.1c-0.7-0.1-1.4,0-2.1,0c-0.2,0-0.5,0-0.7,0c-0.6-0.1-1-0.6-1.1-1.2
	c0-0.6,0.4-1.2,1-1.3h0.1c1.6,0,3.2-0.1,4.8,0.1c1.6,0.1,2.7,1.1,3.3,2.5c1.3,2.7-0.2,5.7-3.1,6.5c-0.4,0.1-0.8,0.1-1.1,0.1
	C-394.1,433.2-396.5,433.2-398.8,433.2L-398.8,433.2z"/>
<path class="st0" d="M-274.9,433.2c-2.5,0-5,0-7.5,0c-0.5,0-0.9-0.2-1.2-0.7c-0.5-0.9,0.1-1.8,1.1-1.9c0.2,0,0.3,0,0.5,0
	c4.1,0,8.2,0,12.2,0c0.5,0,1,0,1.4-0.3c0.7-0.5,1.1-1.4,0.9-2.2c-0.2-0.9-0.9-1.5-1.8-1.5c-0.7,0-1.4,0-2.1,0c-0.2,0-0.5,0-0.7-0.1
	c-0.6-0.1-0.9-0.6-0.9-1.2s0.3-1.1,0.9-1.2c0.2-0.1,0.5-0.1,0.7-0.1c1.2,0,2.3,0,3.5,0c2.1,0,3.7,1.1,4.4,2.9c0.9,2.2-0.1,4.5-2,5.6
	c-0.7,0.4-1.5,0.6-2.4,0.6C-270.2,433.2-272.6,433.2-274.9,433.2L-274.9,433.2z"/>
<path class="st0" d="M-324.5,433.2c-2.5,0-5,0-7.5,0c-0.5,0-0.9-0.1-1.2-0.6c-0.5-0.6-0.2-1.8,1-2c0.2,0,0.3,0,0.5,0
	c4.1,0,8.2,0,12.4,0c0.8,0,1.5-0.3,1.9-1c0.7-1.2,0-2.8-1.4-3c-0.7-0.1-1.3,0-2,0c-0.3,0-0.5,0-0.8,0c-0.7-0.1-1.2-0.6-1.2-1.3
	c0-0.6,0.5-1.2,1.2-1.3c0,0,0,0,0.1,0c1.7,0,3.4-0.2,5,0.1c1.5,0.3,2.5,1.2,3.1,2.5c0.8,1.7,0.6,3.3-0.5,4.8c-0.8,1-1.8,1.7-3.2,1.7
	c-2.1,0-4.2,0-6.4,0C-323.8,433.2-324.2,433.2-324.5,433.2"/>
<path class="st0" d="M-448.4,433.2c-2.5,0-5,0-7.5,0c-0.5,0-0.9-0.1-1.2-0.6c-0.5-0.8,0-1.9,1-2c0.2,0,0.3,0,0.5,0
	c4.1,0,8.2,0,12.3,0c0.7,0,1.3-0.2,1.8-0.7c0.6-0.6,0.6-1.4,0.4-2c-0.2-0.7-0.8-1.2-1.6-1.3c-0.7,0-1.5,0-2.2,0
	c-0.2,0-0.5,0-0.7-0.1c-0.5-0.1-0.9-0.6-0.9-1.2c0-0.5,0.3-1.1,0.8-1.2c0.2-0.1,0.5-0.1,0.7-0.1c1.2,0,2.4,0,3.6,0
	c3,0,5.3,2.6,4.5,5.9c-0.5,2-2.5,3.3-4.1,3.3c-2.1,0-4.2,0-6.4,0C-447.8,433.2-448.1,433.2-448.4,433.2"/>
<path class="st0" d="M-396,417.4c2.5,0,5,0,7.5,0c0.6,0,1,0.2,1.3,0.7c0.4,0.7-0.2,1.7-1,1.8c-0.2,0-0.4,0-0.5,0
	c-4.1,0-8.2,0-12.3,0c-0.4,0-0.7,0-1.1,0.1c-0.9,0.3-1.4,1.3-1.3,2.1c0.2,1,0.9,1.7,1.9,1.8c0.7,0,1.5,0,2.2,0c0.6,0,1,0.2,1.3,0.7
	c0.3,0.7,0,1.5-0.7,1.7c-0.2,0.1-0.4,0.1-0.6,0.1c-1.3,0-2.5,0-3.8,0c-2.6-0.1-4.5-2.2-4.5-4.7c0.1-2.2,1.6-3.9,3.7-4.4
	c0.4-0.1,0.8-0.1,1.2-0.1C-400.5,417.4-398.2,417.4-396,417.4"/>
<path class="st0" d="M-272.1,417.4c2.4,0,4.9,0,7.3,0c0.3,0,0.7,0.1,0.9,0.2c0.5,0.2,0.7,0.8,0.5,1.4c-0.1,0.5-0.6,0.9-1.1,1
	c-0.2,0-0.4,0-0.5,0c-4.1,0-8.2,0-12.3,0c-0.4,0-0.9,0.1-1.2,0.2c-0.8,0.3-1.3,1.3-1.1,2c0.2,1,0.9,1.7,1.8,1.7c0.7,0.1,1.4,0,2.1,0
	c0.3,0,0.5,0,0.8,0.1c0.5,0.1,0.9,0.7,0.9,1.2s-0.4,1.1-0.9,1.2c-0.2,0.1-0.4,0.1-0.7,0.1c-1.1,0-2.3,0-3.4,0
	c-2.4,0-4.5-1.8-4.7-4.4c-0.1-2.1,1.2-3.9,3-4.6c0.6-0.2,1.2-0.2,1.8-0.2C-276.6,417.4-274.3,417.4-272.1,417.4"/>
<path class="st0" d="M-321.8,417.4c2.5,0,4.9,0,7.4,0c0.3,0,0.6,0,0.9,0.2c0.5,0.3,0.7,0.9,0.6,1.3c-0.2,0.6-0.6,1-1.2,1
	c-0.2,0-0.3,0-0.5,0c-4,0-8.1,0-12.1,0c-0.2,0-0.4,0-0.6,0c-1.1,0.1-1.9,0.9-1.9,2c0,1.1,0.8,1.9,1.8,2c0.7,0,1.4,0,2.1,0
	c0.2,0,0.4,0,0.7,0.1c0.6,0.1,1,0.7,1,1.2c0,0.6-0.4,1.1-1,1.2c-0.2,0-0.4,0-0.6,0c-1.1,0-2.2,0-3.3,0c-2.1,0-3.6-1-4.4-2.9
	c-0.8-1.8-0.2-3.8,1.1-5c0.9-0.9,2-1.3,3.3-1.3C-326.3,417.5-324.1,417.4-321.8,417.4"/>
<path class="st0" d="M-453.4,426.5c-2-0.3-3.2-1.5-3.7-3.3s0-3.3,1.3-4.6c0.8-0.7,1.8-1.1,2.9-1.1c0.2,0,0.3,0,0.5,0
	c4.7,0,9.4,0,14.1,0c0.3,0,0.6,0,0.9,0.1c0.5,0.2,0.7,0.9,0.6,1.4c-0.1,0.6-0.6,0.9-1.2,1c-0.2,0-0.3,0-0.5,0c-4.1,0-8.2,0-12.3,0
	c-0.7,0-1.3,0.1-1.8,0.6c-0.5,0.6-0.7,1.3-0.4,2c0.3,0.8,0.8,1.3,1.7,1.4c0.6,0.1,2.3,0,2.5,0c0.8,0.1,1.3,0.6,1.2,1.3
	c0,0.7-0.5,1.2-1.2,1.2C-449.6,426.6-452.6,426.7-453.4,426.5"/>
<path class="st0" d="M-288.1,425.5c0,1.8,0,3.5,0,5.3c0,1.4-1,2.5-2.4,2.6c-1.1,0.1-2.2-0.6-2.6-1.8c-0.1-0.3-0.1-0.6-0.1-0.8
	c0-3.5,0-7,0-10.5c0-1,0.4-1.9,1.4-2.4c2-0.9,3.7,0.6,3.7,2.2v0.1C-288.1,422-288.1,423.8-288.1,425.5"/>
<path class="st0" d="M-412,425.5c0,1.7,0,3.5,0,5.2c0,1.2-0.8,2.5-2.3,2.7c-0.9,0.1-1.6-0.3-2.2-0.9c-0.4-0.5-0.6-1-0.6-1.6
	c0-3.6,0-7.1,0-10.7c0-1.4,1.2-2.4,2.1-2.5c1.5-0.2,2.5,0.6,2.9,1.7c0.1,0.3,0.1,0.6,0.1,0.9C-412,422-412,423.8-412,425.5"/>
<path class="st0" d="M-349.7,425.4c0,1.8,0,3.6,0,5.3c0,0.8-0.2,1.5-0.9,2c-0.8,0.7-1.7,0.9-2.7,0.4c-0.9-0.4-1.5-1.1-1.5-2.2
	c0-3,0-6.1,0-9.1c0-0.7,0-1.4,0-2.1c0-1.3,1-2.3,2.3-2.4c1.6-0.1,2.7,1.2,2.7,2.5C-349.7,421.8-349.7,423.6-349.7,425.4
	L-349.7,425.4z"/>
<path class="st0" d="M-230.8,425.4c0-1.8,0-3.6,0-5.3c0-1.1,0.7-2.3,1.9-2.5c1.2-0.3,2.2,0.1,2.9,1.3c0.3,0.5,0.3,1,0.3,1.5
	c0,3.1,0,6.1,0,9.2c0,0.5,0,0.9,0,1.4c0,1.3-0.9,2.3-2.3,2.6c-0.8,0.1-1.9-0.3-2.5-1.4c-0.2-0.4-0.3-0.8-0.3-1.2
	C-230.8,429-230.8,427.2-230.8,425.4"/>
<path class="st0" d="M-228.4,414.5c-0.8-0.1-1.5-0.2-2-0.8c-0.6-0.6-0.6-1.3,0-1.9c0.6-0.5,1.3-0.7,2.1-0.7c0.6,0,1.2,0.1,1.7,0.4
	c0.6,0.3,0.9,0.9,0.8,1.4c-0.1,0.6-0.6,0.9-1.1,1.1C-227.4,414.3-227.9,414.4-228.4,414.5"/>
<path class="st0" d="M-352.2,414.5c-0.7-0.1-1.4-0.2-2-0.7c-0.7-0.6-0.7-1.5,0-2.1c0.6-0.5,1.3-0.6,2-0.6c0.5,0,1,0.2,1.5,0.4
	c0.6,0.2,1,0.7,1,1.3c0,0.7-0.5,1.1-1,1.3S-351.7,414.4-352.2,414.5"/>
<path class="st0" d="M-218.5,411.6h1v3.4c-0.2,0-0.4,0-0.7,0v-2h-0.1c-0.2,0.7-0.3,1.3-0.5,2h-0.7c-0.2-0.7-0.4-1.5-0.5-2.2h-0.1
	v2.2h-0.7v-3.4h1.1c0.2,0.8,0.4,1.6,0.6,2.4c0,0,0,0,0.1,0C-218.9,413.2-218.7,412.4-218.5,411.6"/>
<path class="st0" d="M-222.2,415h-0.8v-2.8c-0.4,0-0.7-0.1-1-0.1v-0.5c0.1-0.1,1.9-0.2,2.7,0v0.5c-0.3,0-0.6,0.1-1,0.1v2.8H-222.2z"
	/>
<path class="st4" d="M-274.6,450.3c0.4,0,0.8-0.3,0.8-0.7c0-0.5-0.3-0.7-0.8-0.7c-0.4,0-0.7,0.2-0.7,0.7
	C-275.3,450-275,450.3-274.6,450.3 M-277.3,450.2V446c0-1.7-1-3-2.8-3c-1,0-1.9,0.2-2.5,1.2c0-1.4-1.1-1.2-1.9-1.1v0.9
	c0.7-0.1,0.8,0.2,0.8,1.1v5h1.1v-4.2c0-1.2,0.9-2,2.1-2s2,0.8,2,2.1v4.2H-277.3z M-291.9,446.7c0-3.6,5.1-3.6,5.1,0
	S-291.9,450.3-291.9,446.7 M-285.7,446.7c0-4.9-7.4-4.9-7.4,0C-293.1,451.6-285.7,451.5-285.7,446.7 M-294.9,443.2h-1.1v7h1.1V443.2
	z M-296.2,440.9c0,1,1.4,1,1.4,0C-294.7,439.9-296.2,439.9-296.2,440.9 M-304,448.2c0.1,1.6,1.6,2.2,3.1,2.2c1.6,0,3.1-0.7,3.1-2.2
	c0-1.7-1.5-1.9-3-2.1c-1.3-0.2-2-0.4-2-1c0-0.8,0.9-1.2,1.8-1.2c0.9,0,1.8,0.4,1.8,1.1h1.1c0-1.4-1.5-2-2.9-2c-1.5,0-3,0.6-2.9,2.1
	c0,1.5,1.6,1.8,2.9,1.9c1.3,0.2,2,0.4,2,1.2c0,0.9-1,1.3-2,1.3c-0.9,0-1.9-0.3-2-1.2h-1V448.2z M-311.4,448.2
	c0.1,1.6,1.6,2.2,3.1,2.2c1.6,0,3.1-0.7,3.1-2.2c0-1.7-1.5-1.9-3-2.1c-1.3-0.2-2-0.4-2-1c0-0.8,0.9-1.2,1.8-1.2
	c0.9,0,1.8,0.4,1.8,1.1h1.1c0-1.4-1.5-2-2.9-2c-1.5,0-3,0.6-2.9,2.1c0,1.5,1.6,1.8,2.9,1.9c1.3,0.2,2,0.4,2,1.2c0,0.9-1,1.3-2,1.3
	c-0.9,0-1.9-0.3-2-1.2h-1V448.2z M-315.8,443.9c1.3,0,2.2,0.7,2.2,2h-4.6C-318.1,444.7-317.1,443.9-315.8,443.9 M-315.8,443
	c-1.9,0-3.5,1.3-3.6,3.5c-0.1,2.4,1.6,3.9,3.9,3.9c0.9,0,1.8-0.2,2.6-0.6l-0.2-0.9c-0.8,0.3-1.6,0.5-2.4,0.5c-1.6,0-2.9-1-2.8-2.6
	h5.6C-312.3,444.5-313.4,443-315.8,443 M-326.9,448.2c0.1,1.6,1.6,2.2,3.1,2.2c1.6,0,3.1-0.7,3.1-2.2c0-1.7-1.5-1.9-3-2.1
	c-1.3-0.2-2-0.4-2-1c0-0.8,0.9-1.2,1.8-1.2c0.9,0,1.8,0.4,1.8,1.1h1.1c0-1.4-1.5-2-2.9-2c-1.5,0-3,0.6-2.9,2.1
	c0,1.5,1.6,1.8,2.9,1.9c1.3,0.2,2,0.4,2,1.2c0,0.9-1,1.3-2,1.3c-0.9,0-1.9-0.3-2-1.2h-1V448.2z M-333.8,444.7
	c0.7-0.5,1.4-0.7,2.1-0.7c1.3,0,2.4,0.9,2.4,2.7c0,1.9-1.2,2.6-2.6,2.7c-0.6,0-1.2-0.1-1.8-0.3L-333.8,444.7L-333.8,444.7z
	 M-334.9,449.8c0.9,0.4,1.9,0.6,2.9,0.6c2,0,3.8-1,3.8-3.6c0-2.3-1.6-3.7-3.4-3.7c-0.7,0-1.5,0.2-2.2,0.6v-4.1h-1.1
	C-334.9,439.6-334.9,449.8-334.9,449.8z M-342.9,446.7c0-3.6,5.1-3.6,5.1,0S-342.9,450.3-342.9,446.7 M-336.6,446.7
	c0-4.9-7.4-4.9-7.4,0S-336.6,451.5-336.6,446.7 M-352,444.1c0-1.1-0.8-1.2-1.9-1v0.8c0.8-0.1,0.8,0.3,0.8,1v5.4h1.1v-4.4
	c0-1.1,0.9-1.9,1.9-1.9c0.5,0,1,0.2,1.5,0.5l0.3-1c-0.5-0.3-1-0.5-1.6-0.5C-350.8,442.9-351.6,443.2-352,444.1 M-356.9,443.2v4.1
	c0,1.3-0.9,2.1-2.1,2.1s-1.8-0.8-1.8-2.1v-4.1h-1.2v4.1c0,1.7,0.8,3,2.6,3c1.1,0,2-0.2,2.5-1.2c-0.1,1.2,0.8,1.3,1.9,1.1v-0.8
	c-0.7,0.1-0.8-0.1-0.8-1.1v-5.2h-1.1V443.2z M-369.9,446.7c0-3.6,5.1-3.6,5.1,0S-369.9,450.3-369.9,446.7 M-363.6,446.7
	c0-4.9-7.4-4.9-7.4,0S-363.6,451.5-363.6,446.7 M-382.3,448.2c0.1,1.6,1.6,2.2,3.1,2.2c1.6,0,3.1-0.7,3.1-2.2c0-1.7-1.5-1.9-3-2.1
	c-1.3-0.2-2-0.4-2-1c0-0.8,0.9-1.2,1.8-1.2c0.9,0,1.8,0.4,1.8,1.1h1.1c0-1.4-1.5-2-2.9-2c-1.4,0-3,0.6-2.9,2.1
	c0,1.5,1.6,1.8,2.9,1.9c1.3,0.2,2,0.4,2,1.2c0,0.9-1,1.3-2,1.3c-0.9,0-1.9-0.3-2-1.2h-1V448.2z M-383.6,440.7c0-0.1,0-0.1,0-0.2
	c-0.1-0.4-0.4-0.6-0.7-0.6c-0.4,0-0.7,0.3-0.7,0.7c0,0.3,0.2,0.6,0.5,0.7l-0.3,1h0.7l0.4-1.3C-383.6,440.9-383.6,440.8-383.6,440.7
	 M-389.2,441h-0.9l-0.1,2.2h-1.6v0.8l1.5,0.1v3.5c0,2.7,1.7,3.3,4.1,2.6l-0.1-0.9c-1.7,0.6-2.8,0.1-2.8-1.7v-3.4h2.6v-0.8h-2.6V441
	H-389.2z M-394,449.2v-8.3h1.6v-1h-4.5v1h1.6v8.3h-1.7v1h4.8v-1H-394z"/>
<path class="st4" d="M-266.3,440.2h0.9v3c-0.2,0-0.4,0-0.6,0v-1.8h-0.1c-0.1,0.6-0.3,1.2-0.5,1.8h-0.6c-0.2-0.6-0.3-1.3-0.5-1.9
	h-0.1v1.9h-0.6v-3h0.9c0.2,0.7,0.3,1.4,0.5,2.1c0,0,0,0,0.1,0C-266.7,441.6-266.5,440.9-266.3,440.2"/>
<path class="st4" d="M-269.6,443.2h-0.7v-2.4c-0.3,0-0.6-0.1-0.9-0.1v-0.4c0.1-0.1,1.7-0.1,2.4,0v0.5c-0.3,0-0.5,0-0.9,0.1v2.3
	H-269.6z"/>
</svg>
